# xmcd CD database file
#
# Track frame offsets:
#	150
#	11715
#	25442
#	42792
#	55400
#	68277
#	84315
#	99632
#	114352
#	132980
#	146225
#	167905
#	188177
#
# Disc length: 2713 seconds
#
# Revision: 2
# Processed by: cddbd v1.5.1PL0 Copyright (c) Steve Scherf et al.
# Submitted via: CDex 1.50
#
DISCID=af0a970d
DTITLE=Magic Sam - The Magic Sam Legacy
DYEAR=1997
DGENRE=Blues
TTITLE0=I Feel So Good
TTITLE1=Lookin' Good
TTITLE2=Walkin' By Myself
TTITLE3=Hoochie Coochie Man
TTITLE4=That Ain't It
TTITLE5=That's All I Need
TTITLE6=What Have I Done Wrong
TTITLE7=I Just Want A Little Bit
TTITLE8=Everything's Gonna Be All Right
TTITLE9=Keep On Doin' What You're Doin'
TTITLE10=Blues For Odie Payne
TTITLE11=Easy Baby
TTITLE12=Keep On Lovin' Me Baby
EXTD=YEAR: 1997
EXTT0=
EXTT1=
EXTT2=
EXTT3=
EXTT4=
EXTT5=
EXTT6=
EXTT7=
EXTT8=
EXTT9=
EXTT10=
EXTT11=
EXTT12=
PLAYORDER=
